<?xml version="1.0" encoding="UTF-8" standalone="no"?>
<!-- Created with Inkscape (http://www.inkscape.org/) -->

<svg
   xmlns:dc="http://purl.org/dc/elements/1.1/"
   xmlns:cc="http://creativecommons.org/ns#"
   xmlns:rdf="http://www.w3.org/1999/02/22-rdf-syntax-ns#"
   xmlns:svg="http://www.w3.org/2000/svg"
   xmlns="http://www.w3.org/2000/svg"
   xmlns:sodipodi="http://sodipodi.sourceforge.net/DTD/sodipodi-0.dtd"
   xmlns:inkscape="http://www.inkscape.org/namespaces/inkscape"
   id="svg3004"
   version="1.1"
   inkscape:version="0.48.1 r9760"
   width="1000"
   height="750"
   xml:space="preserve"
   sodipodi:docname="datalove-heart1-traced.html"
   inkscape:export-filename="../home/viirus/Dropbox/Public/datalove-bg.html"
   inkscape:export-xdpi="36"
   inkscape:export-ydpi="36"><metadata
     id="metadata3010"><rdf:RDF><cc:Work
         rdf:about=""><dc:format>image/svg+xml</dc:format><dc:type
           rdf:resource="http://purl.org/dc/dcmitype/StillImage" /><dc:title></dc:title></cc:Work></rdf:RDF></metadata><defs
     id="defs3008"><clipPath
       clipPathUnits="userSpaceOnUse"
       id="clipPath3020"><path
         d="m 6840.496,6685.217 632.88,0 0,841.92 -632.88,0 0,-841.92 z"
         id="path3022" /></clipPath><clipPath
       clipPathUnits="userSpaceOnUse"
       id="clipPath3032"><path
         d="m 0,14400 14400,0 L 14400,0 0,0 0,14400 z"
         id="path3034" /></clipPath><clipPath
       clipPathUnits="userSpaceOnUse"
       id="clipPath3050"><path
         d="m 0,14400 14400,0 L 14400,0 0,0 0,14400 z"
         id="path3052" /></clipPath></defs><sodipodi:namedview
     pagecolor="#ffffff"
     bordercolor="#666666"
     borderopacity="1"
     objecttolerance="10"
     gridtolerance="10"
     guidetolerance="10"
     inkscape:pageopacity="0"
     inkscape:pageshadow="2"
     inkscape:window-width="1278"
     inkscape:window-height="989"
     id="namedview3006"
     showgrid="false"
     inkscape:zoom="0.77333333"
     inkscape:cx="657.25627"
     inkscape:cy="311.87619"
     inkscape:window-x="0"
     inkscape:window-y="19"
     inkscape:window-maximized="0"
     inkscape:current-layer="g3012" /><g
     id="g3012"
     inkscape:groupmode="layer"
     inkscape:label="lala1"
     transform="matrix(1.25,0,0,-1.25,-8500.625,9374.375)"><path
   style="fill:#000000;fill-opacity:1"
   d="m 6800.5,7199.5 0,300 400,0 400,0 0,-300 0,-300 -400,0 -400,0 0,300 z"
   id="path3910"
   inkscape:connector-curvature="0" /><g
   id="g3936"
   transform="translate(108.5724,-6.886401)"><path
     inkscape:connector-curvature="0"
     id="path3878"
     d="m 7237.7819,7419.6931 c -21.7998,-0.2888 -43.6719,-3.9281 -64.275,-11.025 -41.9152,-14.438 -75.1163,-42.2454 -91.85,-76.925 -8.0076,-16.5953 -11.575,-32.1501 -11.575,-50.3 0,-25.2392 7.3239,-47.3616 23.25,-70.1 5.0117,-7.1554 24.8601,-27.1053 31.35,-31.525 2.53,-1.723 4.6,-3.6325 4.6,-4.25 0,-0.6174 -1.1004,-3.7156 -2.425,-6.875 -4.7095,-11.233 -13.5539,-20.7418 -24.35,-26.175 -6.1462,-3.0931 -8.2754,-5.1625 -8.925,-8.625 -0.6792,-3.6204 1.5721,-7.9857 4.875,-9.425 2.956,-1.2881 2.4793,-1.271 11.225,-0.275 23.3244,2.6564 50.2735,11.9315 66.85,23.025 l 6.05,4.05 4.35,-1.175 c 7.444,-2.0312 24.2173,-5.0478 33.55,-6.025 11.5536,-1.2097 40.1678,-0.5144 50.4,1.225 25.238,4.2904 43.371,10.1623 62.4,20.175 28.8314,15.1705 50.8393,36.3902 64.275,61.95 31.2429,59.436 7.5103,128.1239 -57.475,166.375 -29.8197,17.5523 -65.967,26.3814 -102.3,25.9 z m 2.125,-18.425 c 44.3118,0.123 88.1374,-14.7861 118.425,-43.2 17.8026,-16.7013 29.0292,-36.2092 33.775,-58.725 1.5209,-7.2162 1.741,-26.0465 0.4,-33.6 -8.5667,-48.2532 -52.5357,-87.332 -112.425,-99.925 -30.7826,-6.4727 -64.7136,-5.1615 -94.1,3.65 l -6.9,2.075 -3.9,-3.775 c -6.9779,-6.7382 -16.0291,-12.1392 -28,-16.7 -8.4955,-3.2368 -11.5,-4.0138 -11.5,-2.975 0,0.4225 0.3246,0.9525 0.725,1.2 1.3585,0.8396 6.1897,10.4251 7.9,15.65 1.8327,5.5985 3.3426,13.8846 3.35,18.4 0,2.4734 -0.4195,3.0897 -3.775,5.2 -27.4838,17.2843 -47.4298,43.4062 -53.75,70.425 -11.3823,48.6587 14.7349,96.3558 67.425,123.1 25.3384,12.8612 53.945,19.1211 82.35,19.2 z"
     style="fill:#ffffff;fill-opacity:1" /></g>
<rect
   style="color:#000000;fill:#ffffff;fill-opacity:1;fill-rule:nonzero;stroke:none;stroke-width:3.5;marker:none;visibility:visible;display:inline;overflow:visible;enable-background:accumulate"
   id="rect4045"
   width="377.46304"
   height="74.533707"
   x="6596.9565"
   y="-7391.2007"
   transform="matrix(0.99918076,-0.04046992,-0.04046992,-0.99918076,0,0)" /><g
   transform="scale(1,-1)"
   style="font-size:52.62353516px;font-style:normal;font-variant:normal;font-weight:normal;font-stretch:normal;text-align:start;line-height:125%;letter-spacing:0px;word-spacing:0px;writing-mode:lr-tb;text-anchor:start;fill:#000000;fill-opacity:1;stroke:none;font-family:Joystix;-inkscape-font-specification:Joystix"
   id="text2985"><path
     d="m 6935.1689,-7067.0999 -5.5255,0 0,5.4202 -5.5255,0 0,5.5781 -27.4168,0 0,-38.5204 27.4168,0 0,5.5255 5.5255,0 0,5.4202 5.5255,0 0,16.5764 m -11.051,0 0,-16.5764 -5.4202,0 0,-5.4202 -11.0509,0 0,27.4168 11.0509,0 0,-5.4202 5.4202,0"
     style=""
     id="path3061" /><path
     d="m 6980.7006,-7056.1016 -11.051,0 0,-10.9983 -16.0502,0 0,10.9983 -11.3666,0 0,-27.5747 5.4202,0 0,-5.4202 5.5255,0 0,-5.5255 16.4711,0 0,5.5255 5.5255,0 0,5.4202 5.5255,0 0,27.5747 m -11.051,-16.5238 0,-11.0509 -5.4202,0 0,-5.4202 -5.5255,0 0,5.4202 -5.1045,0 0,11.0509 16.0502,0"
     style=""
     id="path3063" /><path
     d="m 7023.4432,-7089.0965 -10.9983,0 0,32.9949 -10.9457,0 0,-32.9949 -11.0509,0 0,-5.5255 32.9949,0 0,5.5255"
     style=""
     id="path3065" /><path
     d="m 7071.764,-7056.1016 -11.051,0 0,-10.9983 -16.0502,0 0,10.9983 -11.3667,0 0,-27.5747 5.4203,0 0,-5.4202 5.5254,0 0,-5.5255 16.4712,0 0,5.5255 5.5255,0 0,5.4202 5.5255,0 0,27.5747 m -11.051,-16.5238 0,-11.0509 -5.4202,0 0,-5.4202 -5.5255,0 0,5.4202 -5.1045,0 0,11.0509 16.0502,0"
     style=""
     id="path3067" /><path
     d="m 7117.2956,-7056.1016 -38.4678,0 0,-38.5204 10.9457,0 0,32.9423 27.5221,0 0,5.5781"
     style=""
     id="path3069" /><path
     d="m 7162.8273,-7061.6797 -5.5254,0 0,5.5781 -27.5221,0 0,-5.5781 -5.4203,0 0,-27.4168 5.4203,0 0,-5.5255 27.5221,0 0,5.5255 5.5254,0 0,27.4168 m -11.0509,0 0,-27.4168 -16.4712,0 0,27.4168 16.4712,0"
     style=""
     id="path3071" /><path
     d="m 7208.359,-7072.6254 -5.5254,0 0,5.5255 -5.5255,0 0,5.4202 -5.4202,0 0,5.5781 -5.5255,0 0,-5.5781 -5.5255,0 0,-5.4202 -5.5255,0 0,-5.5255 -5.4202,0 0,-21.9966 10.9457,0 0,16.5238 5.5255,0 0,5.4728 5.5255,0 0,-5.4728 5.4202,0 0,-16.5238 11.0509,0 0,21.9966"
     style=""
     id="path3073" /><path
     d="m 7253.8907,-7056.1016 -38.4678,0 0,-38.5204 38.4678,0 0,5.5255 -27.5221,0 0,10.9983 21.9967,0 0,5.4728 -21.9967,0 0,10.9457 27.5221,0 0,5.5781"
     style=""
     id="path3075" /></g>
<path
   inkscape:connector-curvature="0"
   id="path3874"
   d="m 7377.729,7208.4784 c 22.6091,2.3814 36.7359,12.6081 41.4185,29.9839 1.765,6.549 1.3904,16.7942 -0.8094,22.1427 -4.5564,11.0781 -11.7622,16.3456 -29.2936,21.414 -1.747,0.505 -1.3092,0.8082 3.4614,2.3964 14.139,4.7072 22.3828,18.2462 21.1215,34.6887 -0.6783,8.8428 -3.1651,14.483 -8.9129,20.2143 -4.0296,4.0181 -5.9054,5.2219 -10.87,6.9758 -10.5062,3.7117 -19.1597,4.5728 -29.6,2.9455 -11.7237,-1.8273 -30.1674,-9.8276 -31.5032,-13.6651 -1.5958,-4.5845 1.7569,-9.5123 6.4718,-9.5123 1.5047,0 5.3638,1.356 8.8552,3.1114 8.7229,4.3858 13.7204,5.6886 21.8208,5.6886 14.9363,0 22.9462,-6.5957 23.7796,-19.5813 0.4888,-7.6166 -1.1828,-12.6873 -5.9187,-17.9548 -6.4582,-7.1831 -14.323,-9.6639 -30.637,-9.6639 -9.1611,0 -10.4772,-0.1765 -12.3606,-1.6581 -1.7101,-1.3451 -2.1079,-2.3264 -2.1079,-5.2 0,-6.0751 0.822,-6.4235 16.479,-6.9838 19.0931,-0.6833 26.1823,-2.679 33.5099,-9.4333 5.1162,-4.716 7.0337,-9.8444 6.6745,-17.8518 -0.4739,-10.5673 -4.5649,-16.6602 -14.2205,-21.1795 -4.1679,-1.9508 -5.1609,-2.0759 -16.0429,-2.0221 -11.2375,0.056 -11.8612,0.1492 -19.9572,2.993 -11.9543,4.1991 -14.5134,3.8625 -16.8232,-2.213 -0.6718,-1.7667 -0.6493,-2.9312 0.091,-4.7183 1.741,-4.2031 15.3421,-9.2794 29.154,-10.881 7.8379,-0.9088 7.9318,-0.909 16.2199,-0.036 z"
   style="fill:#d90000;fill-opacity:1"
   inkscape:export-filename="../home/viirus/heart.html"
   inkscape:export-xdpi="40.000721"
   inkscape:export-ydpi="40.000721" /><path
   inkscape:connector-curvature="0"
   id="path3081"
   d="m 7306.706,7234.0008 c 2.5078,2.5078 2.8703,4.419 1.4353,7.5684 -0.5822,1.278 -9.3855,7.615 -24.7797,17.8377 -13.1321,8.7204 -23.8857,16.0789 -23.8968,16.352 -0.011,0.2731 10.7313,7.5837 23.8722,16.2458 15.576,10.2673 24.2083,16.4426 24.8,17.7411 1.3587,2.9822 1.1116,4.79 -0.9888,7.2319 -3.8918,4.5244 -4.6575,4.1655 -36.8076,-17.2514 -23.3336,-15.5438 -29.368,-19.9193 -30.0097,-21.76 -1.7616,-5.0535 -1.211,-5.5355 29.6767,-25.9798 15.8912,-10.5183 29.4655,-19.3689 30.165,-19.668 2.498,-1.068 4.2289,-0.6223 6.5334,1.6823 z"
   style="fill:#d90000;fill-opacity:1"
   inkscape:export-filename="../home/viirus/heart.html"
   inkscape:export-xdpi="40.000721"
   inkscape:export-ydpi="40.000721" /></g></svg>